solid OpenSCAD_Model
  facet normal -1 0 0
    outer loop
      vertex 0 0 0
      vertex 0 6 1
      vertex 0 6 0
    endloop
  endfacet
  facet normal -1 -0 0
    outer loop
      vertex 0 6 1
      vertex 0 0 0
      vertex 0 0 1
    endloop
  endfacet
  facet normal -0 0 1
    outer loop
      vertex 3.47815 2.70791 1
      vertex 6 0 1
      vertex 6 6 1
    endloop
  endfacet
  facet normal 0 0 1
    outer loop
      vertex 6 0 1
      vertex 3.47815 2.70791 1
      vertex 3.5 2.5 1
    endloop
  endfacet
  facet normal 0 0 1
    outer loop
      vertex 6 6 1
      vertex 3.41354 2.90674 1
      vertex 3.47815 2.70791 1
    endloop
  endfacet
  facet normal 0 0 1
    outer loop
      vertex 6 6 1
      vertex 3.30902 3.08778 1
      vertex 3.41354 2.90674 1
    endloop
  endfacet
  facet normal 0 0 1
    outer loop
      vertex 6 6 1
      vertex 3.16913 3.24314 1
      vertex 3.30902 3.08778 1
    endloop
  endfacet
  facet normal 0 0 1
    outer loop
      vertex 6 6 1
      vertex 3 3.36602 1
      vertex 3.16913 3.24314 1
    endloop
  endfacet
  facet normal 0 0 1
    outer loop
      vertex 6 6 1
      vertex 2.80902 3.45106 1
      vertex 3 3.36602 1
    endloop
  endfacet
  facet normal 0 0 1
    outer loop
      vertex 6 6 1
      vertex 2.60453 3.49452 1
      vertex 2.80902 3.45106 1
    endloop
  endfacet
  facet normal -0 0 1
    outer loop
      vertex 0 6 1
      vertex 2.60453 3.49452 1
      vertex 6 6 1
    endloop
  endfacet
  facet normal 0 0 1
    outer loop
      vertex 2.60453 3.49452 1
      vertex 0 6 1
      vertex 2.39547 3.49452 1
    endloop
  endfacet
  facet normal 0 0 1
    outer loop
      vertex 2.39547 3.49452 1
      vertex 0 6 1
      vertex 2.19098 3.45106 1
    endloop
  endfacet
  facet normal 0 0 1
    outer loop
      vertex 1.52185 2.70791 1
      vertex 0 6 1
      vertex 1.5 2.5 1
    endloop
  endfacet
  facet normal 0 0 1
    outer loop
      vertex 1.58645 2.90674 1
      vertex 0 6 1
      vertex 1.52185 2.70791 1
    endloop
  endfacet
  facet normal 0 0 1
    outer loop
      vertex 1.69098 3.08778 1
      vertex 0 6 1
      vertex 1.58645 2.90674 1
    endloop
  endfacet
  facet normal 0 0 1
    outer loop
      vertex 1.83087 3.24314 1
      vertex 0 6 1
      vertex 1.69098 3.08778 1
    endloop
  endfacet
  facet normal 0 0 1
    outer loop
      vertex 2 3.36602 1
      vertex 0 6 1
      vertex 1.83087 3.24314 1
    endloop
  endfacet
  facet normal 0 0 1
    outer loop
      vertex 2.19098 3.45106 1
      vertex 0 6 1
      vertex 2 3.36602 1
    endloop
  endfacet
  facet normal -0 0 1
    outer loop
      vertex 3.47815 2.29209 1
      vertex 6 0 1
      vertex 3.5 2.5 1
    endloop
  endfacet
  facet normal -0 0 1
    outer loop
      vertex 3.41354 2.09326 1
      vertex 6 0 1
      vertex 3.47815 2.29209 1
    endloop
  endfacet
  facet normal -0 0 1
    outer loop
      vertex 3.30902 1.91221 1
      vertex 6 0 1
      vertex 3.41354 2.09326 1
    endloop
  endfacet
  facet normal -0 0 1
    outer loop
      vertex 3.16913 1.75686 1
      vertex 6 0 1
      vertex 3.30902 1.91221 1
    endloop
  endfacet
  facet normal -0 0 1
    outer loop
      vertex 3 1.63397 1
      vertex 6 0 1
      vertex 3.16913 1.75686 1
    endloop
  endfacet
  facet normal -0 0 1
    outer loop
      vertex 2.80902 1.54894 1
      vertex 6 0 1
      vertex 3 1.63397 1
    endloop
  endfacet
  facet normal -0 0 1
    outer loop
      vertex 2.60453 1.50548 1
      vertex 6 0 1
      vertex 2.80902 1.54894 1
    endloop
  endfacet
  facet normal 0 0 1
    outer loop
      vertex 0 0 1
      vertex 2.60453 1.50548 1
      vertex 2.39547 1.50548 1
    endloop
  endfacet
  facet normal 0 0 1
    outer loop
      vertex 0 0 1
      vertex 2.39547 1.50548 1
      vertex 2.19098 1.54894 1
    endloop
  endfacet
  facet normal 0 0 1
    outer loop
      vertex 0 0 1
      vertex 1.5 2.5 1
      vertex 0 6 1
    endloop
  endfacet
  facet normal 0 0 1
    outer loop
      vertex 1.5 2.5 1
      vertex 0 0 1
      vertex 1.52185 2.29209 1
    endloop
  endfacet
  facet normal 0 0 1
    outer loop
      vertex 2.60453 1.50548 1
      vertex 0 0 1
      vertex 6 0 1
    endloop
  endfacet
  facet normal 0 0 1
    outer loop
      vertex 2 1.63397 1
      vertex 0 0 1
      vertex 2.19098 1.54894 1
    endloop
  endfacet
  facet normal 0 0 1
    outer loop
      vertex 1.83087 1.75686 1
      vertex 0 0 1
      vertex 2 1.63397 1
    endloop
  endfacet
  facet normal 0 0 1
    outer loop
      vertex 1.69098 1.91221 1
      vertex 0 0 1
      vertex 1.83087 1.75686 1
    endloop
  endfacet
  facet normal 0 0 1
    outer loop
      vertex 1.58645 2.09326 1
      vertex 0 0 1
      vertex 1.69098 1.91221 1
    endloop
  endfacet
  facet normal 0 0 1
    outer loop
      vertex 1.52185 2.29209 1
      vertex 0 0 1
      vertex 1.58645 2.09326 1
    endloop
  endfacet
  facet normal 1 -0 0
    outer loop
      vertex 6 0 1
      vertex 6 6 0
      vertex 6 6 1
    endloop
  endfacet
  facet normal 1 0 0
    outer loop
      vertex 6 6 0
      vertex 6 0 1
      vertex 6 0 0
    endloop
  endfacet
  facet normal 0 1 -0
    outer loop
      vertex 6 6 0
      vertex 0 6 1
      vertex 6 6 1
    endloop
  endfacet
  facet normal 0 1 0
    outer loop
      vertex 0 6 1
      vertex 6 6 0
      vertex 0 6 0
    endloop
  endfacet
  facet normal 0 0 -1
    outer loop
      vertex 3.47815 2.70791 0
      vertex 6 0 0
      vertex 3.5 2.5 0
    endloop
  endfacet
  facet normal 0 0 -1
    outer loop
      vertex 6 0 0
      vertex 3.47815 2.29209 0
      vertex 3.5 2.5 0
    endloop
  endfacet
  facet normal 0 0 -1
    outer loop
      vertex 6 0 0
      vertex 3.41354 2.09326 0
      vertex 3.47815 2.29209 0
    endloop
  endfacet
  facet normal 0 0 -1
    outer loop
      vertex 6 0 0
      vertex 3.30902 1.91221 0
      vertex 3.41354 2.09326 0
    endloop
  endfacet
  facet normal 0 0 -1
    outer loop
      vertex 6 0 0
      vertex 3.16913 1.75686 0
      vertex 3.30902 1.91221 0
    endloop
  endfacet
  facet normal 0 0 -1
    outer loop
      vertex 6 0 0
      vertex 3 1.63397 0
      vertex 3.16913 1.75686 0
    endloop
  endfacet
  facet normal 0 0 -1
    outer loop
      vertex 6 0 0
      vertex 2.80902 1.54894 0
      vertex 3 1.63397 0
    endloop
  endfacet
  facet normal 0 0 -1
    outer loop
      vertex 6 0 0
      vertex 2.60453 1.50548 0
      vertex 2.80902 1.54894 0
    endloop
  endfacet
  facet normal 0 0 -1
    outer loop
      vertex 0 0 0
      vertex 2.60453 1.50548 0
      vertex 6 0 0
    endloop
  endfacet
  facet normal -0 0 -1
    outer loop
      vertex 2.60453 1.50548 0
      vertex 0 0 0
      vertex 2.39547 1.50548 0
    endloop
  endfacet
  facet normal -0 0 -1
    outer loop
      vertex 1.52185 2.29209 0
      vertex 0 0 0
      vertex 1.5 2.5 0
    endloop
  endfacet
  facet normal -0 0 -1
    outer loop
      vertex 1.58645 2.09326 0
      vertex 0 0 0
      vertex 1.52185 2.29209 0
    endloop
  endfacet
  facet normal -0 0 -1
    outer loop
      vertex 1.69098 1.91221 0
      vertex 0 0 0
      vertex 1.58645 2.09326 0
    endloop
  endfacet
  facet normal -0 0 -1
    outer loop
      vertex 1.83087 1.75686 0
      vertex 0 0 0
      vertex 1.69098 1.91221 0
    endloop
  endfacet
  facet normal -0 0 -1
    outer loop
      vertex 2 1.63397 0
      vertex 0 0 0
      vertex 1.83087 1.75686 0
    endloop
  endfacet
  facet normal -0 0 -1
    outer loop
      vertex 2.19098 1.54894 0
      vertex 0 0 0
      vertex 2 1.63397 0
    endloop
  endfacet
  facet normal -0 0 -1
    outer loop
      vertex 2.39547 1.50548 0
      vertex 0 0 0
      vertex 2.19098 1.54894 0
    endloop
  endfacet
  facet normal 0 0 -1
    outer loop
      vertex 6 0 0
      vertex 3.47815 2.70791 0
      vertex 6 6 0
    endloop
  endfacet
  facet normal 0 0 -1
    outer loop
      vertex 3.41354 2.90674 0
      vertex 6 6 0
      vertex 3.47815 2.70791 0
    endloop
  endfacet
  facet normal 0 0 -1
    outer loop
      vertex 3.30902 3.08778 0
      vertex 6 6 0
      vertex 3.41354 2.90674 0
    endloop
  endfacet
  facet normal 0 0 -1
    outer loop
      vertex 3.16913 3.24314 0
      vertex 6 6 0
      vertex 3.30902 3.08778 0
    endloop
  endfacet
  facet normal 0 0 -1
    outer loop
      vertex 3 3.36602 0
      vertex 6 6 0
      vertex 3.16913 3.24314 0
    endloop
  endfacet
  facet normal 0 0 -1
    outer loop
      vertex 2.80902 3.45106 0
      vertex 6 6 0
      vertex 3 3.36602 0
    endloop
  endfacet
  facet normal 0 0 -1
    outer loop
      vertex 2.60453 3.49452 0
      vertex 6 6 0
      vertex 2.80902 3.45106 0
    endloop
  endfacet
  facet normal 0 0 -1
    outer loop
      vertex 0 6 0
      vertex 2.60453 3.49452 0
      vertex 2.39547 3.49452 0
    endloop
  endfacet
  facet normal 0 0 -1
    outer loop
      vertex 0 6 0
      vertex 2.39547 3.49452 0
      vertex 2.19098 3.45106 0
    endloop
  endfacet
  facet normal 0 0 -1
    outer loop
      vertex 0 6 0
      vertex 2.19098 3.45106 0
      vertex 2 3.36602 0
    endloop
  endfacet
  facet normal 0 0 -1
    outer loop
      vertex 0 0 0
      vertex 1.52185 2.70791 0
      vertex 1.5 2.5 0
    endloop
  endfacet
  facet normal 0 0 -1
    outer loop
      vertex 0 6 0
      vertex 1.52185 2.70791 0
      vertex 0 0 0
    endloop
  endfacet
  facet normal 0 0 -1
    outer loop
      vertex 2.60453 3.49452 0
      vertex 0 6 0
      vertex 6 6 0
    endloop
  endfacet
  facet normal 0 0 -1
    outer loop
      vertex 1.83087 3.24314 0
      vertex 0 6 0
      vertex 2 3.36602 0
    endloop
  endfacet
  facet normal 0 0 -1
    outer loop
      vertex 1.69098 3.08778 0
      vertex 0 6 0
      vertex 1.83087 3.24314 0
    endloop
  endfacet
  facet normal 0 0 -1
    outer loop
      vertex 1.58645 2.90674 0
      vertex 0 6 0
      vertex 1.69098 3.08778 0
    endloop
  endfacet
  facet normal 0 0 -1
    outer loop
      vertex 1.52185 2.70791 0
      vertex 0 6 0
      vertex 1.58645 2.90674 0
    endloop
  endfacet
  facet normal 0 -1 0
    outer loop
      vertex 0 0 0
      vertex 6 0 1
      vertex 0 0 1
    endloop
  endfacet
  facet normal 0 -1 -0
    outer loop
      vertex 6 0 1
      vertex 0 0 0
      vertex 6 0 0
    endloop
  endfacet
  facet normal -0.994522 -0.104529 0
    outer loop
      vertex 3.5 2.5 0
      vertex 3.47815 2.70791 1
      vertex 3.47815 2.70791 0
    endloop
  endfacet
  facet normal -0.994522 -0.104529 0
    outer loop
      vertex 3.47815 2.70791 1
      vertex 3.5 2.5 0
      vertex 3.5 2.5 1
    endloop
  endfacet
  facet normal 0.207909 -0.978148 0
    outer loop
      vertex 2.19098 3.45106 0
      vertex 2.39547 3.49452 1
      vertex 2.19098 3.45106 1
    endloop
  endfacet
  facet normal 0.207909 -0.978148 0
    outer loop
      vertex 2.39547 3.49452 1
      vertex 2.19098 3.45106 0
      vertex 2.39547 3.49452 0
    endloop
  endfacet
  facet normal -0.207909 0.978148 0
    outer loop
      vertex 2.80902 1.54894 0
      vertex 2.60453 1.50548 1
      vertex 2.80902 1.54894 1
    endloop
  endfacet
  facet normal -0.207909 0.978148 0
    outer loop
      vertex 2.60453 1.50548 1
      vertex 2.80902 1.54894 0
      vertex 2.60453 1.50548 0
    endloop
  endfacet
  facet normal -0.587787 -0.809016 0
    outer loop
      vertex 3 3.36602 0
      vertex 3.16913 3.24314 1
      vertex 3 3.36602 1
    endloop
  endfacet
  facet normal -0.587787 -0.809016 -0
    outer loop
      vertex 3.16913 3.24314 1
      vertex 3 3.36602 0
      vertex 3.16913 3.24314 0
    endloop
  endfacet
  facet normal 0.866025 -0.5 0
    outer loop
      vertex 1.58645 2.90674 1
      vertex 1.69098 3.08778 0
      vertex 1.69098 3.08778 1
    endloop
  endfacet
  facet normal 0.866025 -0.5 0
    outer loop
      vertex 1.69098 3.08778 0
      vertex 1.58645 2.90674 1
      vertex 1.58645 2.90674 0
    endloop
  endfacet
  facet normal 0.951055 -0.30902 0
    outer loop
      vertex 1.52185 2.70791 1
      vertex 1.58645 2.90674 0
      vertex 1.58645 2.90674 1
    endloop
  endfacet
  facet normal 0.951055 -0.30902 0
    outer loop
      vertex 1.58645 2.90674 0
      vertex 1.52185 2.70791 1
      vertex 1.52185 2.70791 0
    endloop
  endfacet
  facet normal 0.587785 -0.809017 0
    outer loop
      vertex 1.83087 3.24314 0
      vertex 2 3.36602 1
      vertex 1.83087 3.24314 1
    endloop
  endfacet
  facet normal 0.587785 -0.809017 0
    outer loop
      vertex 2 3.36602 1
      vertex 1.83087 3.24314 0
      vertex 2 3.36602 0
    endloop
  endfacet
  facet normal -0.951055 0.30902 0
    outer loop
      vertex 3.41354 2.09326 0
      vertex 3.47815 2.29209 1
      vertex 3.47815 2.29209 0
    endloop
  endfacet
  facet normal -0.951055 0.30902 0
    outer loop
      vertex 3.47815 2.29209 1
      vertex 3.41354 2.09326 0
      vertex 3.41354 2.09326 1
    endloop
  endfacet
  facet normal -0.866025 -0.5 0
    outer loop
      vertex 3.41354 2.90674 0
      vertex 3.30902 3.08778 1
      vertex 3.30902 3.08778 0
    endloop
  endfacet
  facet normal -0.866025 -0.5 0
    outer loop
      vertex 3.30902 3.08778 1
      vertex 3.41354 2.90674 0
      vertex 3.41354 2.90674 1
    endloop
  endfacet
  facet normal -0.951055 -0.30902 0
    outer loop
      vertex 3.47815 2.70791 0
      vertex 3.41354 2.90674 1
      vertex 3.41354 2.90674 0
    endloop
  endfacet
  facet normal -0.951055 -0.30902 0
    outer loop
      vertex 3.41354 2.90674 1
      vertex 3.47815 2.70791 0
      vertex 3.47815 2.70791 1
    endloop
  endfacet
  facet normal -0.743145 -0.66913 0
    outer loop
      vertex 3.30902 3.08778 0
      vertex 3.16913 3.24314 1
      vertex 3.16913 3.24314 0
    endloop
  endfacet
  facet normal -0.743145 -0.66913 0
    outer loop
      vertex 3.16913 3.24314 1
      vertex 3.30902 3.08778 0
      vertex 3.30902 3.08778 1
    endloop
  endfacet
  facet normal -0.207909 -0.978148 0
    outer loop
      vertex 2.60453 3.49452 0
      vertex 2.80902 3.45106 1
      vertex 2.60453 3.49452 1
    endloop
  endfacet
  facet normal -0.207909 -0.978148 -0
    outer loop
      vertex 2.80902 3.45106 1
      vertex 2.60453 3.49452 0
      vertex 2.80902 3.45106 0
    endloop
  endfacet
  facet normal 0 -1 0
    outer loop
      vertex 2.39547 3.49452 0
      vertex 2.60453 3.49452 1
      vertex 2.39547 3.49452 1
    endloop
  endfacet
  facet normal 0 -1 -0
    outer loop
      vertex 2.60453 3.49452 1
      vertex 2.39547 3.49452 0
      vertex 2.60453 3.49452 0
    endloop
  endfacet
  facet normal -0.406737 -0.913545 0
    outer loop
      vertex 2.80902 3.45106 0
      vertex 3 3.36602 1
      vertex 2.80902 3.45106 1
    endloop
  endfacet
  facet normal -0.406737 -0.913545 -0
    outer loop
      vertex 3 3.36602 1
      vertex 2.80902 3.45106 0
      vertex 3 3.36602 0
    endloop
  endfacet
  facet normal 0.994522 -0.104524 0
    outer loop
      vertex 1.5 2.5 1
      vertex 1.52185 2.70791 0
      vertex 1.52185 2.70791 1
    endloop
  endfacet
  facet normal 0.994522 -0.104524 0
    outer loop
      vertex 1.52185 2.70791 0
      vertex 1.5 2.5 1
      vertex 1.5 2.5 0
    endloop
  endfacet
  facet normal 0.743145 -0.66913 0
    outer loop
      vertex 1.69098 3.08778 1
      vertex 1.83087 3.24314 0
      vertex 1.83087 3.24314 1
    endloop
  endfacet
  facet normal 0.743145 -0.66913 0
    outer loop
      vertex 1.83087 3.24314 0
      vertex 1.69098 3.08778 1
      vertex 1.69098 3.08778 0
    endloop
  endfacet
  facet normal 0.406739 -0.913545 0
    outer loop
      vertex 2 3.36602 0
      vertex 2.19098 3.45106 1
      vertex 2 3.36602 1
    endloop
  endfacet
  facet normal 0.406739 -0.913545 0
    outer loop
      vertex 2.19098 3.45106 1
      vertex 2 3.36602 0
      vertex 2.19098 3.45106 0
    endloop
  endfacet
  facet normal -0.994522 0.104529 0
    outer loop
      vertex 3.47815 2.29209 0
      vertex 3.5 2.5 1
      vertex 3.5 2.5 0
    endloop
  endfacet
  facet normal -0.994522 0.104529 0
    outer loop
      vertex 3.5 2.5 1
      vertex 3.47815 2.29209 0
      vertex 3.47815 2.29209 1
    endloop
  endfacet
  facet normal 0.994522 0.104524 0
    outer loop
      vertex 1.52185 2.29209 1
      vertex 1.5 2.5 0
      vertex 1.5 2.5 1
    endloop
  endfacet
  facet normal 0.994522 0.104524 0
    outer loop
      vertex 1.5 2.5 0
      vertex 1.52185 2.29209 1
      vertex 1.52185 2.29209 0
    endloop
  endfacet
  facet normal -0.743145 0.66913 0
    outer loop
      vertex 3.16913 1.75686 0
      vertex 3.30902 1.91221 1
      vertex 3.30902 1.91221 0
    endloop
  endfacet
  facet normal -0.743145 0.66913 0
    outer loop
      vertex 3.30902 1.91221 1
      vertex 3.16913 1.75686 0
      vertex 3.16913 1.75686 1
    endloop
  endfacet
  facet normal -0.866025 0.5 0
    outer loop
      vertex 3.30902 1.91221 0
      vertex 3.41354 2.09326 1
      vertex 3.41354 2.09326 0
    endloop
  endfacet
  facet normal -0.866025 0.5 0
    outer loop
      vertex 3.41354 2.09326 1
      vertex 3.30902 1.91221 0
      vertex 3.30902 1.91221 1
    endloop
  endfacet
  facet normal 0.406737 0.913545 -0
    outer loop
      vertex 2.19098 1.54894 0
      vertex 2 1.63397 1
      vertex 2.19098 1.54894 1
    endloop
  endfacet
  facet normal 0.406737 0.913545 0
    outer loop
      vertex 2 1.63397 1
      vertex 2.19098 1.54894 0
      vertex 2 1.63397 0
    endloop
  endfacet
  facet normal 0.743145 0.66913 0
    outer loop
      vertex 1.83087 1.75686 1
      vertex 1.69098 1.91221 0
      vertex 1.69098 1.91221 1
    endloop
  endfacet
  facet normal 0.743145 0.66913 0
    outer loop
      vertex 1.69098 1.91221 0
      vertex 1.83087 1.75686 1
      vertex 1.83087 1.75686 0
    endloop
  endfacet
  facet normal 0 1 -0
    outer loop
      vertex 2.60453 1.50548 0
      vertex 2.39547 1.50548 1
      vertex 2.60453 1.50548 1
    endloop
  endfacet
  facet normal 0 1 0
    outer loop
      vertex 2.39547 1.50548 1
      vertex 2.60453 1.50548 0
      vertex 2.39547 1.50548 0
    endloop
  endfacet
  facet normal 0.207909 0.978148 -0
    outer loop
      vertex 2.39547 1.50548 0
      vertex 2.19098 1.54894 1
      vertex 2.39547 1.50548 1
    endloop
  endfacet
  facet normal 0.207909 0.978148 0
    outer loop
      vertex 2.19098 1.54894 1
      vertex 2.39547 1.50548 0
      vertex 2.19098 1.54894 0
    endloop
  endfacet
  facet normal 0.587787 0.809016 -0
    outer loop
      vertex 2 1.63397 0
      vertex 1.83087 1.75686 1
      vertex 2 1.63397 1
    endloop
  endfacet
  facet normal 0.587787 0.809016 0
    outer loop
      vertex 1.83087 1.75686 1
      vertex 2 1.63397 0
      vertex 1.83087 1.75686 0
    endloop
  endfacet
  facet normal 0.866025 0.5 0
    outer loop
      vertex 1.69098 1.91221 1
      vertex 1.58645 2.09326 0
      vertex 1.58645 2.09326 1
    endloop
  endfacet
  facet normal 0.866025 0.5 0
    outer loop
      vertex 1.58645 2.09326 0
      vertex 1.69098 1.91221 1
      vertex 1.69098 1.91221 0
    endloop
  endfacet
  facet normal 0.951055 0.30902 0
    outer loop
      vertex 1.58645 2.09326 1
      vertex 1.52185 2.29209 0
      vertex 1.52185 2.29209 1
    endloop
  endfacet
  facet normal 0.951055 0.30902 0
    outer loop
      vertex 1.52185 2.29209 0
      vertex 1.58645 2.09326 1
      vertex 1.58645 2.09326 0
    endloop
  endfacet
  facet normal -0.587787 0.809016 0
    outer loop
      vertex 3.16913 1.75686 0
      vertex 3 1.63397 1
      vertex 3.16913 1.75686 1
    endloop
  endfacet
  facet normal -0.587787 0.809016 0
    outer loop
      vertex 3 1.63397 1
      vertex 3.16913 1.75686 0
      vertex 3 1.63397 0
    endloop
  endfacet
  facet normal -0.406737 0.913545 0
    outer loop
      vertex 3 1.63397 0
      vertex 2.80902 1.54894 1
      vertex 3 1.63397 1
    endloop
  endfacet
  facet normal -0.406737 0.913545 0
    outer loop
      vertex 2.80902 1.54894 1
      vertex 3 1.63397 0
      vertex 2.80902 1.54894 0
    endloop
  endfacet
endsolid OpenSCAD_Model
