solid OpenSCAD_Model
  facet normal -0.864482 -0.453715 0.216362
    outer loop
      vertex -2.69754 -2.38981 1.73553
      vertex -3.88377 -0.957262 0
      vertex -2.99404 -2.65249 0
    endloop
  endfacet
  facet normal -0.0953061 0.784918 0.612226
    outer loop
      vertex 0.434399 3.5776 1.73553
      vertex -0.88437 2.33189 3.12733
      vertex 0.300613 2.47577 3.12733
    endloop
  endfacet
  facet normal 0.431424 0.106336 0.89586
    outer loop
      vertex 2.20829 1.159 3.12733
      vertex 0.890083 0 3.89971
      vertex 2.49396 0 3.12733
    endloop
  endfacet
  facet normal -0.444336 0 -0.89586
    outer loop
      vertex -2.42149 -0.596843 -3.12733
      vertex -0.864219 0.213011 -3.89971
      vertex -0.864219 -0.213011 -3.89971
    endloop
  endfacet
  facet normal -0.444336 0 -0.89586
    outer loop
      vertex -0.864219 0.213011 -3.89971
      vertex -2.42149 -0.596843 -3.12733
      vertex -2.42149 0.596843 -3.12733
    endloop
  endfacet
  facet normal 0.730781 -0.647415 -0.216362
    outer loop
      vertex 2.27226 -3.29193 0
      vertex 2.04723 -2.96593 -1.73553
      vertex 3.54182 -1.85889 0
    endloop
  endfacet
  facet normal 0.947943 -0.233647 -0.216362
    outer loop
      vertex 4 0 0
      vertex 3.19107 -1.6748 -1.73553
      vertex 3.60388 0 -1.73553
    endloop
  endfacet
  facet normal -0.449159 -0.650719 0.612226
    outer loop
      vertex -2.03014 -2.31 2.31
      vertex -1.86675 -1.6538 3.12733
      vertex -2.31 -2.11683 2.31
    endloop
  endfacet
  facet normal -0.449159 -0.650719 0.612226
    outer loop
      vertex -2.31 -2.11683 2.31
      vertex -2.69754 -2.38981 1.73553
      vertex -2.31 -2.31 2.10468
    endloop
  endfacet
  facet normal -0.449158 -0.65072 0.612226
    outer loop
      vertex -2.69754 -2.38981 1.73553
      vertex -2.31 -2.11683 2.31
      vertex -1.86675 -1.6538 3.12733
    endloop
  endfacet
  facet normal -0.449159 -0.650719 0.612226
    outer loop
      vertex -1.86675 -1.6538 3.12733
      vertex -2.03014 -2.31 2.31
      vertex -0.88437 -2.33189 3.12733
    endloop
  endfacet
  facet normal -0.449159 -0.650719 0.612226
    outer loop
      vertex -2.69754 -2.38981 1.73553
      vertex -2.03014 -2.31 2.31
      vertex -2.31 -2.31 2.10468
    endloop
  endfacet
  facet normal -0.44916 -0.650718 0.612227
    outer loop
      vertex -2.03014 -2.31 2.31
      vertex -2.69754 -2.38981 1.73553
      vertex -0.88437 -2.33189 3.12733
    endloop
  endfacet
  facet normal 0.157564 0.415461 -0.89586
    outer loop
      vertex 1.41673 2.05249 -3.12733
      vertex 0.107287 0.883594 -3.89971
      vertex 0.300613 2.47577 -3.12733
    endloop
  endfacet
  facet normal -0.252412 0.365681 -0.89586
    outer loop
      vertex -0.666237 0.590234 -3.89971
      vertex -1.86675 1.6538 -3.12733
      vertex -0.88437 2.33189 -3.12733
    endloop
  endfacet
  facet normal -0.864482 -0.453715 -0.216362
    outer loop
      vertex -2.69754 -2.38981 -1.73553
      vertex -3.88377 -0.957262 0
      vertex -3.49915 -0.862463 -1.73553
    endloop
  endfacet
  facet normal 0.767707 -0.189223 0.612226
    outer loop
      vertex 3.60388 0 1.73553
      vertex 2.20829 -1.159 3.12733
      vertex 3.19107 -1.6748 1.73553
    endloop
  endfacet
  facet normal 0.346205 0.912869 -0.216362
    outer loop
      vertex 2.04723 2.96593 -1.73553
      vertex 0.482146 3.97083 0
      vertex 2.27226 3.29193 0
    endloop
  endfacet
  facet normal 0.730781 -0.647415 0.216362
    outer loop
      vertex 3.54182 -1.85889 0
      vertex 2.04723 -2.96593 1.73553
      vertex 2.27226 -3.29193 0
    endloop
  endfacet
  facet normal 0.28038 -0.739301 -0.612226
    outer loop
      vertex 0.434399 -3.5776 -1.73553
      vertex 0.300613 -2.47577 -3.12733
      vertex 2.04723 -2.96593 -1.73553
    endloop
  endfacet
  facet normal -0.39344 -0.206493 0.89586
    outer loop
      vertex -0.666237 -0.590234 3.89971
      vertex -2.42149 -0.596843 3.12733
      vertex -1.86675 -1.6538 3.12733
    endloop
  endfacet
  facet normal -0.864482 -0.453715 -0.216362
    outer loop
      vertex -2.99404 -2.65249 0
      vertex -3.88377 -0.957262 0
      vertex -2.69754 -2.38981 -1.73553
    endloop
  endfacet
  facet normal 0.947943 -0.233647 0.216362
    outer loop
      vertex 3.60388 0 1.73553
      vertex 3.19107 -1.6748 1.73553
      vertex 4 0 0
    endloop
  endfacet
  facet normal 0.767707 0.189222 -0.612226
    outer loop
      vertex 2.49396 0 -3.12733
      vertex 2.20829 1.159 -3.12733
      vertex 3.60388 0 -1.73553
    endloop
  endfacet
  facet normal -0.790683 0 0.612226
    outer loop
      vertex -3.49915 0.862463 1.73553
      vertex -2.42149 -0.596843 3.12733
      vertex -2.42149 0.596843 3.12733
    endloop
  endfacet
  facet normal -0.790683 0 0.612226
    outer loop
      vertex -2.42149 -0.596843 3.12733
      vertex -3.49915 0.862463 1.73553
      vertex -3.49915 -0.862463 1.73553
    endloop
  endfacet
  facet normal 0.346205 0.912869 -0.216362
    outer loop
      vertex 2.04723 2.96593 -1.73553
      vertex 0.434399 3.5776 -1.73553
      vertex 0.482146 3.97083 0
    endloop
  endfacet
  facet normal 0.431424 -0.106336 -0.89586
    outer loop
      vertex 2.20829 -1.159 -3.12733
      vertex 0.78813 -0.413642 -3.89971
      vertex 0.890083 0 -3.89971
    endloop
  endfacet
  facet normal 0.157564 -0.415461 -0.89586
    outer loop
      vertex 1.41673 -2.05249 -3.12733
      vertex 0.107287 -0.883594 -3.89971
      vertex 0.505625 -0.732524 -3.89971
    endloop
  endfacet
  facet normal 0.730781 0.647415 0.216362
    outer loop
      vertex 2.27226 3.29193 0
      vertex 2.04723 2.96593 1.73553
      vertex 3.54182 1.85889 0
    endloop
  endfacet
  facet normal 0.591834 -0.52432 0.612226
    outer loop
      vertex 1.41673 -2.05249 3.12733
      vertex 2.11371 -2.22012 2.31
      vertex 2.20829 -1.159 3.12733
    endloop
  endfacet
  facet normal 0.591834 -0.524319 0.612226
    outer loop
      vertex 2.11371 -2.22012 2.31
      vertex 1.41673 -2.05249 3.12733
      vertex 2.03408 -2.31 2.31
    endloop
  endfacet
  facet normal 0.591833 -0.52432 0.612227
    outer loop
      vertex 2.03408 -2.31 2.31
      vertex 2.04723 -2.96593 1.73553
      vertex 2.1057 -2.31 2.24077
    endloop
  endfacet
  facet normal 0.591834 -0.52432 0.612226
    outer loop
      vertex 2.04723 -2.96593 1.73553
      vertex 2.03408 -2.31 2.31
      vertex 1.41673 -2.05249 3.12733
    endloop
  endfacet
  facet normal 0.157564 0.415461 0.89586
    outer loop
      vertex 0.300613 2.47577 3.12733
      vertex 0.107287 0.883594 3.89971
      vertex 1.41673 2.05249 3.12733
    endloop
  endfacet
  facet normal 0.28038 0.739301 0.612226
    outer loop
      vertex 2.04723 2.96593 1.73553
      vertex 0.300613 2.47577 3.12733
      vertex 1.41673 2.05249 3.12733
    endloop
  endfacet
  facet normal 0.346205 0.912869 0.216362
    outer loop
      vertex 2.27226 3.29193 0
      vertex 0.482146 3.97083 0
      vertex 2.04723 2.96593 1.73553
    endloop
  endfacet
  facet normal 0.591833 0.52432 0.612227
    outer loop
      vertex 2.04723 2.96593 1.73553
      vertex 2.03408 2.31 2.31
      vertex 2.1057 2.31 2.24077
    endloop
  endfacet
  facet normal 0.591834 0.52432 0.612226
    outer loop
      vertex 2.03408 2.31 2.31
      vertex 2.04723 2.96593 1.73553
      vertex 1.41673 2.05249 3.12733
    endloop
  endfacet
  facet normal 0.591834 0.524319 0.612226
    outer loop
      vertex 1.41673 2.05249 3.12733
      vertex 2.11371 2.22012 2.31
      vertex 2.03408 2.31 2.31
    endloop
  endfacet
  facet normal 0.591834 0.52432 0.612226
    outer loop
      vertex 2.11371 2.22012 2.31
      vertex 1.41673 2.05249 3.12733
      vertex 2.20829 1.159 3.12733
    endloop
  endfacet
  facet normal 0.28038 0.739301 -0.612226
    outer loop
      vertex 1.41673 2.05249 -3.12733
      vertex 0.300613 2.47577 -3.12733
      vertex 2.04723 2.96593 -1.73553
    endloop
  endfacet
  facet normal 0.730781 0.647415 -0.216362
    outer loop
      vertex 3.54182 1.85889 0
      vertex 2.04723 2.96593 -1.73553
      vertex 2.27226 3.29193 0
    endloop
  endfacet
  facet normal -0.39344 0.206493 0.89586
    outer loop
      vertex -0.666237 0.590234 3.89971
      vertex -2.42149 0.596843 3.12733
      vertex -0.864219 0.213011 3.89971
    endloop
  endfacet
  facet normal -0.0953064 -0.784918 0.612226
    outer loop
      vertex -0.88437 -2.33189 3.12733
      vertex -1.27795 -3.36968 1.73553
      vertex 0.434399 -3.5776 1.73553
    endloop
  endfacet
  facet normal 0.591835 -0.52432 0.612226
    outer loop
      vertex 2.20829 -1.159 3.12733
      vertex 2.31 -1.99855 2.31
      vertex 3.19107 -1.6748 1.73553
    endloop
  endfacet
  facet normal 0.591835 -0.52432 0.612226
    outer loop
      vertex 2.31 -1.99855 2.31
      vertex 2.20829 -1.159 3.12733
      vertex 2.11371 -2.22012 2.31
    endloop
  endfacet
  facet normal 0.591835 -0.52432 0.612226
    outer loop
      vertex 2.31 -2.31 2.04327
      vertex 3.19107 -1.6748 1.73553
      vertex 2.31 -1.99855 2.31
    endloop
  endfacet
  facet normal 0.591835 -0.524319 0.612226
    outer loop
      vertex 2.31 -2.31 2.04327
      vertex 2.04723 -2.96593 1.73553
      vertex 3.19107 -1.6748 1.73553
    endloop
  endfacet
  facet normal 0.591835 -0.524319 0.612226
    outer loop
      vertex 2.04723 -2.96593 1.73553
      vertex 2.31 -2.31 2.04327
      vertex 2.1057 -2.31 2.24077
    endloop
  endfacet
  facet normal 0.28038 -0.739301 0.612226
    outer loop
      vertex 2.04723 -2.96593 1.73553
      vertex 0.300613 -2.47577 3.12733
      vertex 0.434399 -3.5776 1.73553
    endloop
  endfacet
  facet normal -0.0953061 -0.784918 0.612226
    outer loop
      vertex 0.300613 -2.47577 3.12733
      vertex -0.88437 -2.33189 3.12733
      vertex 0.434399 -3.5776 1.73553
    endloop
  endfacet
  facet normal 0.947943 -0.233647 -0.216362
    outer loop
      vertex 3.54182 -1.85889 0
      vertex 3.19107 -1.6748 -1.73553
      vertex 4 0 0
    endloop
  endfacet
  facet normal 0.730781 -0.647415 -0.216362
    outer loop
      vertex 3.54182 -1.85889 0
      vertex 2.04723 -2.96593 -1.73553
      vertex 3.19107 -1.6748 -1.73553
    endloop
  endfacet
  facet normal -0.0953064 -0.784918 -0.612226
    outer loop
      vertex 0.434399 -3.5776 -1.73553
      vertex -1.27795 -3.36968 -1.73553
      vertex -0.88437 -2.33189 -3.12733
    endloop
  endfacet
  facet normal 0.591835 -0.524319 -0.612226
    outer loop
      vertex 2.31 -2.31 -2.04327
      vertex 2.04723 -2.96593 -1.73553
      vertex 2.1057 -2.31 -2.24077
    endloop
  endfacet
  facet normal 0.591835 -0.524319 -0.612226
    outer loop
      vertex 2.04723 -2.96593 -1.73553
      vertex 2.31 -2.31 -2.04327
      vertex 3.19107 -1.6748 -1.73553
    endloop
  endfacet
  facet normal 0.591835 -0.52432 -0.612226
    outer loop
      vertex 2.31 -1.99855 -2.31
      vertex 3.19107 -1.6748 -1.73553
      vertex 2.31 -2.31 -2.04327
    endloop
  endfacet
  facet normal 0.591835 -0.52432 -0.612226
    outer loop
      vertex 2.31 -1.99855 -2.31
      vertex 2.20829 -1.159 -3.12733
      vertex 3.19107 -1.6748 -1.73553
    endloop
  endfacet
  facet normal 0.591835 -0.52432 -0.612226
    outer loop
      vertex 2.20829 -1.159 -3.12733
      vertex 2.31 -1.99855 -2.31
      vertex 2.11371 -2.22012 -2.31
    endloop
  endfacet
  facet normal 0.767707 -0.189223 -0.612226
    outer loop
      vertex 3.19107 -1.6748 -1.73553
      vertex 2.20829 -1.159 -3.12733
      vertex 3.60388 0 -1.73553
    endloop
  endfacet
  facet normal -0.0953061 -0.784918 -0.612226
    outer loop
      vertex 0.434399 -3.5776 -1.73553
      vertex -0.88437 -2.33189 -3.12733
      vertex 0.300613 -2.47577 -3.12733
    endloop
  endfacet
  facet normal 0.28038 -0.739301 -0.612226
    outer loop
      vertex 2.04723 -2.96593 -1.73553
      vertex 0.300613 -2.47577 -3.12733
      vertex 1.41673 -2.05249 -3.12733
    endloop
  endfacet
  facet normal 0.767707 0.189222 0.612226
    outer loop
      vertex 3.60388 0 1.73553
      vertex 2.20829 1.159 3.12733
      vertex 2.49396 0 3.12733
    endloop
  endfacet
  facet normal 0.591835 0.524319 0.612226
    outer loop
      vertex 2.31 2.31 2.04327
      vertex 2.04723 2.96593 1.73553
      vertex 2.1057 2.31 2.24077
    endloop
  endfacet
  facet normal 0.591835 0.524319 0.612226
    outer loop
      vertex 2.04723 2.96593 1.73553
      vertex 2.31 2.31 2.04327
      vertex 3.19107 1.6748 1.73553
    endloop
  endfacet
  facet normal 0.591835 0.52432 0.612226
    outer loop
      vertex 2.31 1.99855 2.31
      vertex 3.19107 1.6748 1.73553
      vertex 2.31 2.31 2.04327
    endloop
  endfacet
  facet normal 0.591835 0.52432 0.612226
    outer loop
      vertex 2.31 1.99855 2.31
      vertex 2.20829 1.159 3.12733
      vertex 3.19107 1.6748 1.73553
    endloop
  endfacet
  facet normal 0.591835 0.52432 0.612226
    outer loop
      vertex 2.20829 1.159 3.12733
      vertex 2.31 1.99855 2.31
      vertex 2.11371 2.22012 2.31
    endloop
  endfacet
  facet normal 0.33259 0.294649 0.89586
    outer loop
      vertex 1.41673 2.05249 3.12733
      vertex 0.505625 0.732524 3.89971
      vertex 2.20829 1.159 3.12733
    endloop
  endfacet
  facet normal 0.947943 0.233647 0.216362
    outer loop
      vertex 4 0 0
      vertex 3.19107 1.6748 1.73553
      vertex 3.60388 0 1.73553
    endloop
  endfacet
  facet normal 0.28038 0.739301 0.612226
    outer loop
      vertex 0.434399 3.5776 1.73553
      vertex 0.300613 2.47577 3.12733
      vertex 2.04723 2.96593 1.73553
    endloop
  endfacet
  facet normal 0.346205 0.912869 0.216362
    outer loop
      vertex 0.482146 3.97083 0
      vertex 0.434399 3.5776 1.73553
      vertex 2.04723 2.96593 1.73553
    endloop
  endfacet
  facet normal -0.117681 0.969195 -0.216362
    outer loop
      vertex 0.434399 3.5776 -1.73553
      vertex -1.41842 3.74006 0
      vertex 0.482146 3.97083 0
    endloop
  endfacet
  facet normal -0.864482 -0.453715 0.216362
    outer loop
      vertex -3.49915 -0.862463 1.73553
      vertex -3.88377 -0.957262 0
      vertex -2.69754 -2.38981 1.73553
    endloop
  endfacet
  facet normal 0.730781 0.647415 0.216362
    outer loop
      vertex 3.54182 1.85889 0
      vertex 2.04723 2.96593 1.73553
      vertex 3.19107 1.6748 1.73553
    endloop
  endfacet
  facet normal 0.947943 0.233647 0.216362
    outer loop
      vertex 3.54182 1.85889 0
      vertex 3.19107 1.6748 1.73553
      vertex 4 0 0
    endloop
  endfacet
  facet normal 0.157564 -0.415461 -0.89586
    outer loop
      vertex 0.300613 -2.47577 -3.12733
      vertex 0.107287 -0.883594 -3.89971
      vertex 1.41673 -2.05249 -3.12733
    endloop
  endfacet
  facet normal -0.449159 0.650719 -0.612226
    outer loop
      vertex -0.88437 2.33189 -3.12733
      vertex -2.69754 2.38981 -1.73553
      vertex -1.27795 3.36968 -1.73553
    endloop
  endfacet
  facet normal -0.252412 0.365681 0.89586
    outer loop
      vertex -0.88437 2.33189 3.12733
      vertex -1.86675 1.6538 3.12733
      vertex -0.666237 0.590234 3.89971
    endloop
  endfacet
  facet normal -0.449159 -0.650719 0.612226
    outer loop
      vertex -0.88437 -2.33189 3.12733
      vertex -2.69754 -2.38981 1.73553
      vertex -1.27795 -3.36968 1.73553
    endloop
  endfacet
  facet normal -0.0535587 -0.441096 0.89586
    outer loop
      vertex 0.107287 -0.883594 3.89971
      vertex -0.88437 -2.33189 3.12733
      vertex 0.300613 -2.47577 3.12733
    endloop
  endfacet
  facet normal -0.554609 -0.80349 0.216362
    outer loop
      vertex -2.69754 -2.38981 1.73553
      vertex -2.99404 -2.65249 0
      vertex -1.27795 -3.36968 1.73553
    endloop
  endfacet
  facet normal -0.554609 -0.80349 -0.216362
    outer loop
      vertex -1.41842 -3.74006 0
      vertex -2.99404 -2.65249 0
      vertex -1.27795 -3.36968 -1.73553
    endloop
  endfacet
  facet normal -0.117681 -0.969195 0.216362
    outer loop
      vertex 0.434399 -3.5776 1.73553
      vertex -1.41842 -3.74006 0
      vertex 0.482146 -3.97083 0
    endloop
  endfacet
  facet normal -0.117682 -0.969195 -0.216362
    outer loop
      vertex 0.434399 -3.5776 -1.73553
      vertex -1.41842 -3.74006 0
      vertex -1.27795 -3.36968 -1.73553
    endloop
  endfacet
  facet normal 0.346205 -0.912869 -0.216362
    outer loop
      vertex 0.482146 -3.97083 0
      vertex 0.434399 -3.5776 -1.73553
      vertex 2.04723 -2.96593 -1.73553
    endloop
  endfacet
  facet normal 0.730781 -0.647415 0.216362
    outer loop
      vertex 3.19107 -1.6748 1.73553
      vertex 2.04723 -2.96593 1.73553
      vertex 3.54182 -1.85889 0
    endloop
  endfacet
  facet normal 0.947943 -0.233647 0.216362
    outer loop
      vertex 4 0 0
      vertex 3.19107 -1.6748 1.73553
      vertex 3.54182 -1.85889 0
    endloop
  endfacet
  facet normal 0.431424 0.106336 -0.89586
    outer loop
      vertex 2.49396 0 -3.12733
      vertex 0.890083 0 -3.89971
      vertex 2.20829 1.159 -3.12733
    endloop
  endfacet
  facet normal 0.591835 0.52432 -0.612226
    outer loop
      vertex 2.20829 1.159 -3.12733
      vertex 2.31 1.99855 -2.31
      vertex 3.19107 1.6748 -1.73553
    endloop
  endfacet
  facet normal 0.591835 0.52432 -0.612226
    outer loop
      vertex 2.31 1.99855 -2.31
      vertex 2.20829 1.159 -3.12733
      vertex 2.11371 2.22012 -2.31
    endloop
  endfacet
  facet normal 0.591835 0.52432 -0.612226
    outer loop
      vertex 2.31 2.31 -2.04327
      vertex 3.19107 1.6748 -1.73553
      vertex 2.31 1.99855 -2.31
    endloop
  endfacet
  facet normal 0.591835 0.524319 -0.612226
    outer loop
      vertex 2.31 2.31 -2.04327
      vertex 2.04723 2.96593 -1.73553
      vertex 3.19107 1.6748 -1.73553
    endloop
  endfacet
  facet normal 0.591835 0.524319 -0.612226
    outer loop
      vertex 2.04723 2.96593 -1.73553
      vertex 2.31 2.31 -2.04327
      vertex 2.1057 2.31 -2.24077
    endloop
  endfacet
  facet normal 0.591834 0.52432 -0.612226
    outer loop
      vertex 1.41673 2.05249 -3.12733
      vertex 2.11371 2.22012 -2.31
      vertex 2.20829 1.159 -3.12733
    endloop
  endfacet
  facet normal 0.591834 0.524319 -0.612226
    outer loop
      vertex 2.11371 2.22012 -2.31
      vertex 1.41673 2.05249 -3.12733
      vertex 2.03408 2.31 -2.31
    endloop
  endfacet
  facet normal 0.591833 0.52432 -0.612227
    outer loop
      vertex 2.03408 2.31 -2.31
      vertex 2.04723 2.96593 -1.73553
      vertex 2.1057 2.31 -2.24077
    endloop
  endfacet
  facet normal 0.591834 0.52432 -0.612226
    outer loop
      vertex 2.04723 2.96593 -1.73553
      vertex 2.03408 2.31 -2.31
      vertex 1.41673 2.05249 -3.12733
    endloop
  endfacet
  facet normal -0.0535587 0.441096 -0.89586
    outer loop
      vertex 0.107287 0.883594 -3.89971
      vertex -0.88437 2.33189 -3.12733
      vertex 0.300613 2.47577 -3.12733
    endloop
  endfacet
  facet normal 0.767707 -0.189222 0.612226
    outer loop
      vertex 2.49396 0 3.12733
      vertex 2.20829 -1.159 3.12733
      vertex 3.60388 0 1.73553
    endloop
  endfacet
  facet normal 0.431424 -0.106336 0.89586
    outer loop
      vertex 2.49396 0 3.12733
      vertex 0.890083 0 3.89971
      vertex 2.20829 -1.159 3.12733
    endloop
  endfacet
  facet normal 0.157564 0.415461 0.89586
    outer loop
      vertex 1.41673 2.05249 3.12733
      vertex 0.107287 0.883594 3.89971
      vertex 0.505625 0.732524 3.89971
    endloop
  endfacet
  facet normal 0.767707 0.189223 0.612226
    outer loop
      vertex 3.19107 1.6748 1.73553
      vertex 2.20829 1.159 3.12733
      vertex 3.60388 0 1.73553
    endloop
  endfacet
  facet normal -0.976313 0 -0.216362
    outer loop
      vertex -3.49915 -0.862463 -1.73553
      vertex -3.88377 0.957262 0
      vertex -3.49915 0.862463 -1.73553
    endloop
  endfacet
  facet normal -0.976313 -0 -0.216362
    outer loop
      vertex -3.88377 0.957262 0
      vertex -3.49915 -0.862463 -1.73553
      vertex -3.88377 -0.957262 0
    endloop
  endfacet
  facet normal -0.700115 -0.367449 -0.612226
    outer loop
      vertex -2.69754 -2.38981 -1.73553
      vertex -3.49915 -0.862463 -1.73553
      vertex -2.42149 -0.596843 -3.12733
    endloop
  endfacet
  facet normal -0.700115 -0.367449 0.612226
    outer loop
      vertex -2.42149 -0.596843 3.12733
      vertex -3.49915 -0.862463 1.73553
      vertex -2.69754 -2.38981 1.73553
    endloop
  endfacet
  facet normal -0.700115 -0.367449 0.612226
    outer loop
      vertex -2.42149 -0.596843 3.12733
      vertex -2.69754 -2.38981 1.73553
      vertex -1.86675 -1.6538 3.12733
    endloop
  endfacet
  facet normal 0.730781 0.647415 -0.216362
    outer loop
      vertex 3.19107 1.6748 -1.73553
      vertex 2.04723 2.96593 -1.73553
      vertex 3.54182 1.85889 0
    endloop
  endfacet
  facet normal 0.947943 0.233647 -0.216362
    outer loop
      vertex 4 0 0
      vertex 3.19107 1.6748 -1.73553
      vertex 3.54182 1.85889 0
    endloop
  endfacet
  facet normal -0.252412 -0.365681 -0.89586
    outer loop
      vertex -0.88437 -2.33189 -3.12733
      vertex -1.86675 -1.6538 -3.12733
      vertex -0.666237 -0.590234 -3.89971
    endloop
  endfacet
  facet normal -0.790683 0 -0.612226
    outer loop
      vertex -2.42149 -0.596843 -3.12733
      vertex -3.49915 0.862463 -1.73553
      vertex -2.42149 0.596843 -3.12733
    endloop
  endfacet
  facet normal -0.790683 -0 -0.612226
    outer loop
      vertex -3.49915 0.862463 -1.73553
      vertex -2.42149 -0.596843 -3.12733
      vertex -3.49915 -0.862463 -1.73553
    endloop
  endfacet
  facet normal 0.157564 0.415461 -0.89586
    outer loop
      vertex 0.505625 0.732524 -3.89971
      vertex 0.107287 0.883594 -3.89971
      vertex 1.41673 2.05249 -3.12733
    endloop
  endfacet
  facet normal -0.0953064 0.784918 -0.612226
    outer loop
      vertex -0.88437 2.33189 -3.12733
      vertex -1.27795 3.36968 -1.73553
      vertex 0.434399 3.5776 -1.73553
    endloop
  endfacet
  facet normal -0.554609 0.80349 -0.216362
    outer loop
      vertex -1.27795 3.36968 -1.73553
      vertex -2.99404 2.65249 0
      vertex -1.41842 3.74006 0
    endloop
  endfacet
  facet normal -0.700115 0.367449 -0.612226
    outer loop
      vertex -2.42149 0.596843 -3.12733
      vertex -3.49915 0.862463 -1.73553
      vertex -2.69754 2.38981 -1.73553
    endloop
  endfacet
  facet normal -0.449159 0.650719 -0.612226
    outer loop
      vertex -2.69754 2.38981 -1.73553
      vertex -2.03014 2.31 -2.31
      vertex -2.31 2.31 -2.10468
    endloop
  endfacet
  facet normal -0.449159 0.650719 -0.612226
    outer loop
      vertex -1.86675 1.6538 -3.12733
      vertex -2.03014 2.31 -2.31
      vertex -0.88437 2.33189 -3.12733
    endloop
  endfacet
  facet normal -0.44916 0.650718 -0.612227
    outer loop
      vertex -0.88437 2.33189 -3.12733
      vertex -2.03014 2.31 -2.31
      vertex -2.69754 2.38981 -1.73553
    endloop
  endfacet
  facet normal -0.449159 0.650719 -0.612226
    outer loop
      vertex -2.31 2.11683 -2.31
      vertex -2.69754 2.38981 -1.73553
      vertex -2.31 2.31 -2.10468
    endloop
  endfacet
  facet normal -0.449158 0.65072 -0.612226
    outer loop
      vertex -2.31 2.11683 -2.31
      vertex -1.86675 1.6538 -3.12733
      vertex -2.69754 2.38981 -1.73553
    endloop
  endfacet
  facet normal -0.449159 0.650719 -0.612226
    outer loop
      vertex -2.03014 2.31 -2.31
      vertex -1.86675 1.6538 -3.12733
      vertex -2.31 2.11683 -2.31
    endloop
  endfacet
  facet normal -0.252411 -0.365681 0.89586
    outer loop
      vertex -0.666237 -0.590234 3.89971
      vertex -0.88437 -2.33189 3.12733
      vertex -0.315627 -0.832242 3.89971
    endloop
  endfacet
  facet normal -0.252412 -0.365681 0.89586
    outer loop
      vertex -0.666237 -0.590234 3.89971
      vertex -1.86675 -1.6538 3.12733
      vertex -0.88437 -2.33189 3.12733
    endloop
  endfacet
  facet normal -0.449159 -0.650719 -0.612226
    outer loop
      vertex -1.27795 -3.36968 -1.73553
      vertex -2.69754 -2.38981 -1.73553
      vertex -0.88437 -2.33189 -3.12733
    endloop
  endfacet
  facet normal -0.554609 -0.80349 -0.216362
    outer loop
      vertex -1.27795 -3.36968 -1.73553
      vertex -2.99404 -2.65249 0
      vertex -2.69754 -2.38981 -1.73553
    endloop
  endfacet
  facet normal 0.346205 -0.912869 0.216362
    outer loop
      vertex 2.04723 -2.96593 1.73553
      vertex 0.482146 -3.97083 0
      vertex 2.27226 -3.29193 0
    endloop
  endfacet
  facet normal 0.346205 -0.912869 -0.216362
    outer loop
      vertex 2.27226 -3.29193 0
      vertex 0.482146 -3.97083 0
      vertex 2.04723 -2.96593 -1.73553
    endloop
  endfacet
  facet normal -0.117681 -0.969195 -0.216362
    outer loop
      vertex 0.482146 -3.97083 0
      vertex -1.41842 -3.74006 0
      vertex 0.434399 -3.5776 -1.73553
    endloop
  endfacet
  facet normal 0.346205 -0.912869 0.216362
    outer loop
      vertex 2.04723 -2.96593 1.73553
      vertex 0.434399 -3.5776 1.73553
      vertex 0.482146 -3.97083 0
    endloop
  endfacet
  facet normal -0.117682 -0.969195 0.216362
    outer loop
      vertex -1.27795 -3.36968 1.73553
      vertex -1.41842 -3.74006 0
      vertex 0.434399 -3.5776 1.73553
    endloop
  endfacet
  facet normal -0.554609 -0.80349 0.216362
    outer loop
      vertex -1.27795 -3.36968 1.73553
      vertex -2.99404 -2.65249 0
      vertex -1.41842 -3.74006 0
    endloop
  endfacet
  facet normal 0.767707 -0.189222 -0.612226
    outer loop
      vertex 3.60388 0 -1.73553
      vertex 2.20829 -1.159 -3.12733
      vertex 2.49396 0 -3.12733
    endloop
  endfacet
  facet normal 0.431424 -0.106336 -0.89586
    outer loop
      vertex 2.20829 -1.159 -3.12733
      vertex 0.890083 0 -3.89971
      vertex 2.49396 0 -3.12733
    endloop
  endfacet
  facet normal 0.33259 -0.294649 -0.89586
    outer loop
      vertex 2.20829 -1.159 -3.12733
      vertex 0.505625 -0.732524 -3.89971
      vertex 0.78813 -0.413642 -3.89971
    endloop
  endfacet
  facet normal 0.33259 -0.294649 -0.89586
    outer loop
      vertex 1.41673 -2.05249 -3.12733
      vertex 0.505625 -0.732524 -3.89971
      vertex 2.20829 -1.159 -3.12733
    endloop
  endfacet
  facet normal 0.591833 -0.52432 -0.612227
    outer loop
      vertex 2.04723 -2.96593 -1.73553
      vertex 2.03408 -2.31 -2.31
      vertex 2.1057 -2.31 -2.24077
    endloop
  endfacet
  facet normal 0.591834 -0.52432 -0.612226
    outer loop
      vertex 2.03408 -2.31 -2.31
      vertex 2.04723 -2.96593 -1.73553
      vertex 1.41673 -2.05249 -3.12733
    endloop
  endfacet
  facet normal 0.591834 -0.524319 -0.612226
    outer loop
      vertex 1.41673 -2.05249 -3.12733
      vertex 2.11371 -2.22012 -2.31
      vertex 2.03408 -2.31 -2.31
    endloop
  endfacet
  facet normal 0.591834 -0.52432 -0.612226
    outer loop
      vertex 2.11371 -2.22012 -2.31
      vertex 1.41673 -2.05249 -3.12733
      vertex 2.20829 -1.159 -3.12733
    endloop
  endfacet
  facet normal -0.0535587 -0.441096 -0.89586
    outer loop
      vertex 0.300613 -2.47577 -3.12733
      vertex -0.88437 -2.33189 -3.12733
      vertex 0.107287 -0.883594 -3.89971
    endloop
  endfacet
  facet normal 0.157564 -0.415461 0.89586
    outer loop
      vertex 0.505625 -0.732524 3.89971
      vertex 0.107287 -0.883594 3.89971
      vertex 1.41673 -2.05249 3.12733
    endloop
  endfacet
  facet normal 0.431424 -0.106336 0.89586
    outer loop
      vertex 0.890083 0 3.89971
      vertex 0.78813 -0.413642 3.89971
      vertex 2.20829 -1.159 3.12733
    endloop
  endfacet
  facet normal 0.157564 -0.415461 0.89586
    outer loop
      vertex 1.41673 -2.05249 3.12733
      vertex 0.107287 -0.883594 3.89971
      vertex 0.300613 -2.47577 3.12733
    endloop
  endfacet
  facet normal 0.28038 -0.739301 0.612226
    outer loop
      vertex 1.41673 -2.05249 3.12733
      vertex 0.300613 -2.47577 3.12733
      vertex 2.04723 -2.96593 1.73553
    endloop
  endfacet
  facet normal 0.33259 0.294649 0.89586
    outer loop
      vertex 2.20829 1.159 3.12733
      vertex 0.505625 0.732524 3.89971
      vertex 0.78813 0.413642 3.89971
    endloop
  endfacet
  facet normal 0.431424 0.106336 0.89586
    outer loop
      vertex 2.20829 1.159 3.12733
      vertex 0.78813 0.413642 3.89971
      vertex 0.890083 0 3.89971
    endloop
  endfacet
  facet normal -0.976313 0 0.216362
    outer loop
      vertex -3.88377 0.957262 0
      vertex -3.49915 -0.862463 1.73553
      vertex -3.49915 0.862463 1.73553
    endloop
  endfacet
  facet normal -0.976313 0 0.216362
    outer loop
      vertex -3.49915 -0.862463 1.73553
      vertex -3.88377 0.957262 0
      vertex -3.88377 -0.957262 0
    endloop
  endfacet
  facet normal 0.767707 0.189223 -0.612226
    outer loop
      vertex 3.60388 0 -1.73553
      vertex 2.20829 1.159 -3.12733
      vertex 3.19107 1.6748 -1.73553
    endloop
  endfacet
  facet normal 0.947943 0.233647 -0.216362
    outer loop
      vertex 3.60388 0 -1.73553
      vertex 3.19107 1.6748 -1.73553
      vertex 4 0 0
    endloop
  endfacet
  facet normal -0.39344 0.206493 -0.89586
    outer loop
      vertex -0.864219 0.213011 -3.89971
      vertex -2.42149 0.596843 -3.12733
      vertex -0.666237 0.590234 -3.89971
    endloop
  endfacet
  facet normal 0.33259 0.294649 -0.89586
    outer loop
      vertex 2.20829 1.159 -3.12733
      vertex 0.505625 0.732524 -3.89971
      vertex 1.41673 2.05249 -3.12733
    endloop
  endfacet
  facet normal -0.0953061 0.784918 -0.612226
    outer loop
      vertex 0.300613 2.47577 -3.12733
      vertex -0.88437 2.33189 -3.12733
      vertex 0.434399 3.5776 -1.73553
    endloop
  endfacet
  facet normal 0.28038 0.739301 -0.612226
    outer loop
      vertex 2.04723 2.96593 -1.73553
      vertex 0.300613 2.47577 -3.12733
      vertex 0.434399 3.5776 -1.73553
    endloop
  endfacet
  facet normal -0.0535592 -0.441096 0.89586
    outer loop
      vertex -0.315627 -0.832242 3.89971
      vertex -0.88437 -2.33189 3.12733
      vertex 0.107287 -0.883594 3.89971
    endloop
  endfacet
  facet normal -0.0535592 -0.441096 -0.89586
    outer loop
      vertex 0.107287 -0.883594 -3.89971
      vertex -0.88437 -2.33189 -3.12733
      vertex -0.315627 -0.832242 -3.89971
    endloop
  endfacet
  facet normal -0.39344 -0.206493 -0.89586
    outer loop
      vertex -1.86675 -1.6538 -3.12733
      vertex -2.42149 -0.596843 -3.12733
      vertex -0.666237 -0.590234 -3.89971
    endloop
  endfacet
  facet normal 0.33259 -0.294649 0.89586
    outer loop
      vertex 2.20829 -1.159 3.12733
      vertex 0.505625 -0.732524 3.89971
      vertex 1.41673 -2.05249 3.12733
    endloop
  endfacet
  facet normal 0.33259 -0.294649 0.89586
    outer loop
      vertex 0.78813 -0.413642 3.89971
      vertex 0.505625 -0.732524 3.89971
      vertex 2.20829 -1.159 3.12733
    endloop
  endfacet
  facet normal -0.0535587 0.441096 0.89586
    outer loop
      vertex 0.300613 2.47577 3.12733
      vertex -0.88437 2.33189 3.12733
      vertex 0.107287 0.883594 3.89971
    endloop
  endfacet
  facet normal -0.864482 0.453715 -0.216362
    outer loop
      vertex -3.49915 0.862463 -1.73553
      vertex -3.88377 0.957262 0
      vertex -2.69754 2.38981 -1.73553
    endloop
  endfacet
  facet normal -0.444336 0 0.89586
    outer loop
      vertex -2.42149 0.596843 3.12733
      vertex -0.864219 -0.213011 3.89971
      vertex -0.864219 0.213011 3.89971
    endloop
  endfacet
  facet normal -0.444336 0 0.89586
    outer loop
      vertex -0.864219 -0.213011 3.89971
      vertex -2.42149 0.596843 3.12733
      vertex -2.42149 -0.596843 3.12733
    endloop
  endfacet
  facet normal 0 0 1
    outer loop
      vertex 0.78813 0.413642 3.89971
      vertex 0.78813 -0.413642 3.89971
      vertex 0.890083 0 3.89971
    endloop
  endfacet
  facet normal 0 0 1
    outer loop
      vertex 0.505625 0.732524 3.89971
      vertex 0.78813 -0.413642 3.89971
      vertex 0.78813 0.413642 3.89971
    endloop
  endfacet
  facet normal 0 0 1
    outer loop
      vertex 0.505625 0.732524 3.89971
      vertex 0.505625 -0.732524 3.89971
      vertex 0.78813 -0.413642 3.89971
    endloop
  endfacet
  facet normal 0 0 1
    outer loop
      vertex 0.107287 0.883594 3.89971
      vertex 0.505625 -0.732524 3.89971
      vertex 0.505625 0.732524 3.89971
    endloop
  endfacet
  facet normal 0 0 1
    outer loop
      vertex 0.107287 0.883594 3.89971
      vertex 0.107287 -0.883594 3.89971
      vertex 0.505625 -0.732524 3.89971
    endloop
  endfacet
  facet normal -0 0 1
    outer loop
      vertex -0.315627 0.832242 3.89971
      vertex 0.107287 -0.883594 3.89971
      vertex 0.107287 0.883594 3.89971
    endloop
  endfacet
  facet normal 0 0 1
    outer loop
      vertex -0.315627 0.832242 3.89971
      vertex -0.315627 -0.832242 3.89971
      vertex 0.107287 -0.883594 3.89971
    endloop
  endfacet
  facet normal -0 0 1
    outer loop
      vertex -0.666237 0.590234 3.89971
      vertex -0.315627 -0.832242 3.89971
      vertex -0.315627 0.832242 3.89971
    endloop
  endfacet
  facet normal 0 0 1
    outer loop
      vertex -0.666237 0.590234 3.89971
      vertex -0.666237 -0.590234 3.89971
      vertex -0.315627 -0.832242 3.89971
    endloop
  endfacet
  facet normal -0 0 1
    outer loop
      vertex -0.864219 0.213011 3.89971
      vertex -0.666237 -0.590234 3.89971
      vertex -0.666237 0.590234 3.89971
    endloop
  endfacet
  facet normal 0 0 1
    outer loop
      vertex -0.666237 -0.590234 3.89971
      vertex -0.864219 0.213011 3.89971
      vertex -0.864219 -0.213011 3.89971
    endloop
  endfacet
  facet normal -0.700115 0.367449 0.612226
    outer loop
      vertex -1.86675 1.6538 3.12733
      vertex -2.69754 2.38981 1.73553
      vertex -2.42149 0.596843 3.12733
    endloop
  endfacet
  facet normal -0.864482 0.453715 -0.216362
    outer loop
      vertex -2.69754 2.38981 -1.73553
      vertex -3.88377 0.957262 0
      vertex -2.99404 2.65249 0
    endloop
  endfacet
  facet normal -0.252411 0.365681 -0.89586
    outer loop
      vertex -0.666237 0.590234 -3.89971
      vertex -0.88437 2.33189 -3.12733
      vertex -0.315627 0.832242 -3.89971
    endloop
  endfacet
  facet normal -0.0535592 0.441096 -0.89586
    outer loop
      vertex -0.315627 0.832242 -3.89971
      vertex -0.88437 2.33189 -3.12733
      vertex 0.107287 0.883594 -3.89971
    endloop
  endfacet
  facet normal 0.33259 0.294649 -0.89586
    outer loop
      vertex 0.78813 0.413642 -3.89971
      vertex 0.505625 0.732524 -3.89971
      vertex 2.20829 1.159 -3.12733
    endloop
  endfacet
  facet normal 0.431424 0.106336 -0.89586
    outer loop
      vertex 0.890083 0 -3.89971
      vertex 0.78813 0.413642 -3.89971
      vertex 2.20829 1.159 -3.12733
    endloop
  endfacet
  facet normal -0.39344 0.206493 -0.89586
    outer loop
      vertex -0.666237 0.590234 -3.89971
      vertex -2.42149 0.596843 -3.12733
      vertex -1.86675 1.6538 -3.12733
    endloop
  endfacet
  facet normal -0.700115 0.367449 -0.612226
    outer loop
      vertex -2.42149 0.596843 -3.12733
      vertex -2.69754 2.38981 -1.73553
      vertex -1.86675 1.6538 -3.12733
    endloop
  endfacet
  facet normal 0 0 -1
    outer loop
      vertex 0.78813 -0.413642 -3.89971
      vertex 0.78813 0.413642 -3.89971
      vertex 0.890083 0 -3.89971
    endloop
  endfacet
  facet normal 0 0 -1
    outer loop
      vertex 0.505625 -0.732524 -3.89971
      vertex 0.78813 0.413642 -3.89971
      vertex 0.78813 -0.413642 -3.89971
    endloop
  endfacet
  facet normal 0 0 -1
    outer loop
      vertex 0.505625 -0.732524 -3.89971
      vertex 0.505625 0.732524 -3.89971
      vertex 0.78813 0.413642 -3.89971
    endloop
  endfacet
  facet normal 0 0 -1
    outer loop
      vertex 0.107287 -0.883594 -3.89971
      vertex 0.505625 0.732524 -3.89971
      vertex 0.505625 -0.732524 -3.89971
    endloop
  endfacet
  facet normal 0 0 -1
    outer loop
      vertex 0.107287 -0.883594 -3.89971
      vertex 0.107287 0.883594 -3.89971
      vertex 0.505625 0.732524 -3.89971
    endloop
  endfacet
  facet normal 0 0 -1
    outer loop
      vertex -0.315627 -0.832242 -3.89971
      vertex 0.107287 0.883594 -3.89971
      vertex 0.107287 -0.883594 -3.89971
    endloop
  endfacet
  facet normal 0 0 -1
    outer loop
      vertex -0.315627 -0.832242 -3.89971
      vertex -0.315627 0.832242 -3.89971
      vertex 0.107287 0.883594 -3.89971
    endloop
  endfacet
  facet normal 0 0 -1
    outer loop
      vertex -0.666237 -0.590234 -3.89971
      vertex -0.315627 0.832242 -3.89971
      vertex -0.315627 -0.832242 -3.89971
    endloop
  endfacet
  facet normal 0 0 -1
    outer loop
      vertex -0.666237 -0.590234 -3.89971
      vertex -0.666237 0.590234 -3.89971
      vertex -0.315627 0.832242 -3.89971
    endloop
  endfacet
  facet normal 0 0 -1
    outer loop
      vertex -0.864219 -0.213011 -3.89971
      vertex -0.666237 0.590234 -3.89971
      vertex -0.666237 -0.590234 -3.89971
    endloop
  endfacet
  facet normal 0 0 -1
    outer loop
      vertex -0.666237 0.590234 -3.89971
      vertex -0.864219 -0.213011 -3.89971
      vertex -0.864219 0.213011 -3.89971
    endloop
  endfacet
  facet normal -0.39344 -0.206493 -0.89586
    outer loop
      vertex -0.666237 -0.590234 -3.89971
      vertex -2.42149 -0.596843 -3.12733
      vertex -0.864219 -0.213011 -3.89971
    endloop
  endfacet
  facet normal -0.252411 -0.365681 -0.89586
    outer loop
      vertex -0.315627 -0.832242 -3.89971
      vertex -0.88437 -2.33189 -3.12733
      vertex -0.666237 -0.590234 -3.89971
    endloop
  endfacet
  facet normal -0.449159 -0.650719 -0.612226
    outer loop
      vertex -2.69754 -2.38981 -1.73553
      vertex -2.31 -2.11683 -2.31
      vertex -2.31 -2.31 -2.10468
    endloop
  endfacet
  facet normal -0.449159 -0.650719 -0.612226
    outer loop
      vertex -2.31 -2.11683 -2.31
      vertex -1.86675 -1.6538 -3.12733
      vertex -2.03014 -2.31 -2.31
    endloop
  endfacet
  facet normal -0.449158 -0.65072 -0.612226
    outer loop
      vertex -1.86675 -1.6538 -3.12733
      vertex -2.31 -2.11683 -2.31
      vertex -2.69754 -2.38981 -1.73553
    endloop
  endfacet
  facet normal -0.449159 -0.650719 -0.612226
    outer loop
      vertex -2.03014 -2.31 -2.31
      vertex -2.69754 -2.38981 -1.73553
      vertex -2.31 -2.31 -2.10468
    endloop
  endfacet
  facet normal -0.44916 -0.650718 -0.612227
    outer loop
      vertex -2.03014 -2.31 -2.31
      vertex -0.88437 -2.33189 -3.12733
      vertex -2.69754 -2.38981 -1.73553
    endloop
  endfacet
  facet normal -0.449159 -0.650719 -0.612226
    outer loop
      vertex -0.88437 -2.33189 -3.12733
      vertex -2.03014 -2.31 -2.31
      vertex -1.86675 -1.6538 -3.12733
    endloop
  endfacet
  facet normal -0.700115 -0.367449 -0.612226
    outer loop
      vertex -1.86675 -1.6538 -3.12733
      vertex -2.69754 -2.38981 -1.73553
      vertex -2.42149 -0.596843 -3.12733
    endloop
  endfacet
  facet normal -0.39344 0.206493 0.89586
    outer loop
      vertex -1.86675 1.6538 3.12733
      vertex -2.42149 0.596843 3.12733
      vertex -0.666237 0.590234 3.89971
    endloop
  endfacet
  facet normal -0.554609 0.80349 -0.216362
    outer loop
      vertex -2.69754 2.38981 -1.73553
      vertex -2.99404 2.65249 0
      vertex -1.27795 3.36968 -1.73553
    endloop
  endfacet
  facet normal -0.39344 -0.206493 0.89586
    outer loop
      vertex -0.864219 -0.213011 3.89971
      vertex -2.42149 -0.596843 3.12733
      vertex -0.666237 -0.590234 3.89971
    endloop
  endfacet
  facet normal -0.252411 0.365681 0.89586
    outer loop
      vertex -0.315627 0.832242 3.89971
      vertex -0.88437 2.33189 3.12733
      vertex -0.666237 0.590234 3.89971
    endloop
  endfacet
  facet normal -0.117682 0.969195 0.216362
    outer loop
      vertex 0.434399 3.5776 1.73553
      vertex -1.41842 3.74006 0
      vertex -1.27795 3.36968 1.73553
    endloop
  endfacet
  facet normal -0.554609 0.80349 0.216362
    outer loop
      vertex -1.41842 3.74006 0
      vertex -2.99404 2.65249 0
      vertex -1.27795 3.36968 1.73553
    endloop
  endfacet
  facet normal -0.117682 0.969195 -0.216362
    outer loop
      vertex -1.27795 3.36968 -1.73553
      vertex -1.41842 3.74006 0
      vertex 0.434399 3.5776 -1.73553
    endloop
  endfacet
  facet normal -0.449159 0.650719 0.612226
    outer loop
      vertex -0.88437 2.33189 3.12733
      vertex -2.03014 2.31 2.31
      vertex -1.86675 1.6538 3.12733
    endloop
  endfacet
  facet normal -0.44916 0.650718 0.612227
    outer loop
      vertex -2.69754 2.38981 1.73553
      vertex -2.03014 2.31 2.31
      vertex -0.88437 2.33189 3.12733
    endloop
  endfacet
  facet normal -0.449159 0.650719 0.612226
    outer loop
      vertex -2.03014 2.31 2.31
      vertex -2.69754 2.38981 1.73553
      vertex -2.31 2.31 2.10468
    endloop
  endfacet
  facet normal -0.449159 0.650719 0.612226
    outer loop
      vertex -2.31 2.11683 2.31
      vertex -1.86675 1.6538 3.12733
      vertex -2.03014 2.31 2.31
    endloop
  endfacet
  facet normal -0.449158 0.65072 0.612226
    outer loop
      vertex -2.31 2.11683 2.31
      vertex -2.69754 2.38981 1.73553
      vertex -1.86675 1.6538 3.12733
    endloop
  endfacet
  facet normal -0.449159 0.650719 0.612226
    outer loop
      vertex -2.69754 2.38981 1.73553
      vertex -2.31 2.11683 2.31
      vertex -2.31 2.31 2.10468
    endloop
  endfacet
  facet normal -0.0953064 0.784918 0.612226
    outer loop
      vertex 0.434399 3.5776 1.73553
      vertex -1.27795 3.36968 1.73553
      vertex -0.88437 2.33189 3.12733
    endloop
  endfacet
  facet normal -0.0535592 0.441096 0.89586
    outer loop
      vertex 0.107287 0.883594 3.89971
      vertex -0.88437 2.33189 3.12733
      vertex -0.315627 0.832242 3.89971
    endloop
  endfacet
  facet normal -0.864482 0.453715 0.216362
    outer loop
      vertex -2.99404 2.65249 0
      vertex -3.88377 0.957262 0
      vertex -2.69754 2.38981 1.73553
    endloop
  endfacet
  facet normal -0.117681 0.969195 0.216362
    outer loop
      vertex 0.482146 3.97083 0
      vertex -1.41842 3.74006 0
      vertex 0.434399 3.5776 1.73553
    endloop
  endfacet
  facet normal -0.864482 0.453715 0.216362
    outer loop
      vertex -2.69754 2.38981 1.73553
      vertex -3.88377 0.957262 0
      vertex -3.49915 0.862463 1.73553
    endloop
  endfacet
  facet normal -0.700115 0.367449 0.612226
    outer loop
      vertex -2.69754 2.38981 1.73553
      vertex -3.49915 0.862463 1.73553
      vertex -2.42149 0.596843 3.12733
    endloop
  endfacet
  facet normal -0.554609 0.80349 0.216362
    outer loop
      vertex -1.27795 3.36968 1.73553
      vertex -2.99404 2.65249 0
      vertex -2.69754 2.38981 1.73553
    endloop
  endfacet
  facet normal -0.449159 0.650719 0.612226
    outer loop
      vertex -1.27795 3.36968 1.73553
      vertex -2.69754 2.38981 1.73553
      vertex -0.88437 2.33189 3.12733
    endloop
  endfacet
  facet normal 1 0 0
    outer loop
      vertex -2.31 -2.31 2.10468
      vertex -2.31 2.31 2.10468
      vertex -2.31 2.11683 2.31
    endloop
  endfacet
  facet normal 1 0 0
    outer loop
      vertex -2.31 2.31 2.10468
      vertex -2.31 -2.31 2.10468
      vertex -2.31 2.31 -2.10468
    endloop
  endfacet
  facet normal 1 0 0
    outer loop
      vertex -2.31 -2.31 2.10468
      vertex -2.31 2.11683 2.31
      vertex -2.31 -2.11683 2.31
    endloop
  endfacet
  facet normal 1 0 0
    outer loop
      vertex -2.31 -2.31 -2.10468
      vertex -2.31 2.31 -2.10468
      vertex -2.31 -2.31 2.10468
    endloop
  endfacet
  facet normal 1 0 0
    outer loop
      vertex -2.31 2.31 -2.10468
      vertex -2.31 -2.31 -2.10468
      vertex -2.31 2.11683 -2.31
    endloop
  endfacet
  facet normal 1 0 0
    outer loop
      vertex -2.31 2.11683 -2.31
      vertex -2.31 -2.31 -2.10468
      vertex -2.31 -2.11683 -2.31
    endloop
  endfacet
  facet normal 0 0 -1
    outer loop
      vertex -2.03014 -2.31 2.31
      vertex 2.31 -1.99855 2.31
      vertex 2.11371 -2.22012 2.31
    endloop
  endfacet
  facet normal -0 0 -1
    outer loop
      vertex 2.31 -1.99855 2.31
      vertex -2.03014 -2.31 2.31
      vertex 2.31 1.99855 2.31
    endloop
  endfacet
  facet normal 0 0 -1
    outer loop
      vertex -2.03014 -2.31 2.31
      vertex 2.11371 -2.22012 2.31
      vertex 2.03408 -2.31 2.31
    endloop
  endfacet
  facet normal 0 0 -1
    outer loop
      vertex -2.03014 2.31 2.31
      vertex 2.31 1.99855 2.31
      vertex -2.03014 -2.31 2.31
    endloop
  endfacet
  facet normal 0 0 -1
    outer loop
      vertex 2.31 1.99855 2.31
      vertex -2.03014 2.31 2.31
      vertex 2.11371 2.22012 2.31
    endloop
  endfacet
  facet normal 0 0 -1
    outer loop
      vertex 2.11371 2.22012 2.31
      vertex -2.03014 2.31 2.31
      vertex 2.03408 2.31 2.31
    endloop
  endfacet
  facet normal 0 0 -1
    outer loop
      vertex -2.31 -2.11683 2.31
      vertex -2.03014 2.31 2.31
      vertex -2.03014 -2.31 2.31
    endloop
  endfacet
  facet normal 0 0 -1
    outer loop
      vertex -2.03014 2.31 2.31
      vertex -2.31 -2.11683 2.31
      vertex -2.31 2.11683 2.31
    endloop
  endfacet
  facet normal -1 0 0
    outer loop
      vertex 2.31 1.99855 -2.31
      vertex 2.31 2.31 2.04327
      vertex 2.31 2.31 -2.04327
    endloop
  endfacet
  facet normal -1 0 0
    outer loop
      vertex 2.31 1.99855 -2.31
      vertex 2.31 1.99855 2.31
      vertex 2.31 2.31 2.04327
    endloop
  endfacet
  facet normal -1 0 0
    outer loop
      vertex 2.31 -1.99855 -2.31
      vertex 2.31 1.99855 2.31
      vertex 2.31 1.99855 -2.31
    endloop
  endfacet
  facet normal -1 0 0
    outer loop
      vertex 2.31 -1.99855 -2.31
      vertex 2.31 -1.99855 2.31
      vertex 2.31 1.99855 2.31
    endloop
  endfacet
  facet normal -1 0 0
    outer loop
      vertex 2.31 -2.31 -2.04327
      vertex 2.31 -1.99855 2.31
      vertex 2.31 -1.99855 -2.31
    endloop
  endfacet
  facet normal -1 0 0
    outer loop
      vertex 2.31 -1.99855 2.31
      vertex 2.31 -2.31 -2.04327
      vertex 2.31 -2.31 2.04327
    endloop
  endfacet
  facet normal 0 0 1
    outer loop
      vertex -2.03014 2.31 -2.31
      vertex 2.31 1.99855 -2.31
      vertex 2.11371 2.22012 -2.31
    endloop
  endfacet
  facet normal 0 0 1
    outer loop
      vertex 2.31 1.99855 -2.31
      vertex -2.03014 2.31 -2.31
      vertex 2.31 -1.99855 -2.31
    endloop
  endfacet
  facet normal -0 0 1
    outer loop
      vertex -2.03014 2.31 -2.31
      vertex 2.11371 2.22012 -2.31
      vertex 2.03408 2.31 -2.31
    endloop
  endfacet
  facet normal 0 0 1
    outer loop
      vertex -2.03014 -2.31 -2.31
      vertex 2.31 -1.99855 -2.31
      vertex -2.03014 2.31 -2.31
    endloop
  endfacet
  facet normal 0 0 1
    outer loop
      vertex 2.31 -1.99855 -2.31
      vertex -2.03014 -2.31 -2.31
      vertex 2.11371 -2.22012 -2.31
    endloop
  endfacet
  facet normal 0 0 1
    outer loop
      vertex 2.11371 -2.22012 -2.31
      vertex -2.03014 -2.31 -2.31
      vertex 2.03408 -2.31 -2.31
    endloop
  endfacet
  facet normal -0 0 1
    outer loop
      vertex -2.31 2.11683 -2.31
      vertex -2.03014 -2.31 -2.31
      vertex -2.03014 2.31 -2.31
    endloop
  endfacet
  facet normal 0 0 1
    outer loop
      vertex -2.03014 -2.31 -2.31
      vertex -2.31 2.11683 -2.31
      vertex -2.31 -2.11683 -2.31
    endloop
  endfacet
  facet normal 0 1 0
    outer loop
      vertex 2.1057 -2.31 2.24077
      vertex -2.03014 -2.31 2.31
      vertex 2.03408 -2.31 2.31
    endloop
  endfacet
  facet normal 0 1 0
    outer loop
      vertex -2.03014 -2.31 -2.31
      vertex -2.03014 -2.31 2.31
      vertex 2.1057 -2.31 2.24077
    endloop
  endfacet
  facet normal 0 1 0
    outer loop
      vertex 2.1057 -2.31 -2.24077
      vertex 2.1057 -2.31 2.24077
      vertex 2.31 -2.31 2.04327
    endloop
  endfacet
  facet normal 0 1 0
    outer loop
      vertex 2.1057 -2.31 -2.24077
      vertex 2.31 -2.31 2.04327
      vertex 2.31 -2.31 -2.04327
    endloop
  endfacet
  facet normal 0 1 0
    outer loop
      vertex 2.1057 -2.31 2.24077
      vertex 2.1057 -2.31 -2.24077
      vertex -2.03014 -2.31 -2.31
    endloop
  endfacet
  facet normal 0 1 0
    outer loop
      vertex -2.03014 -2.31 2.31
      vertex -2.03014 -2.31 -2.31
      vertex -2.31 -2.31 2.10468
    endloop
  endfacet
  facet normal 0 1 0
    outer loop
      vertex -2.03014 -2.31 -2.31
      vertex 2.1057 -2.31 -2.24077
      vertex 2.03408 -2.31 -2.31
    endloop
  endfacet
  facet normal 0 1 0
    outer loop
      vertex -2.31 -2.31 2.10468
      vertex -2.03014 -2.31 -2.31
      vertex -2.31 -2.31 -2.10468
    endloop
  endfacet
  facet normal 0 -1 0
    outer loop
      vertex -2.03014 2.31 2.31
      vertex 2.1057 2.31 2.24077
      vertex 2.03408 2.31 2.31
    endloop
  endfacet
  facet normal 0 -1 0
    outer loop
      vertex -2.03014 2.31 -2.31
      vertex -2.03014 2.31 2.31
      vertex -2.31 2.31 2.10468
    endloop
  endfacet
  facet normal 0 -1 0
    outer loop
      vertex -2.03014 2.31 2.31
      vertex -2.03014 2.31 -2.31
      vertex 2.1057 2.31 2.24077
    endloop
  endfacet
  facet normal -0 -1 0
    outer loop
      vertex 2.1057 2.31 -2.24077
      vertex 2.1057 2.31 2.24077
      vertex -2.03014 2.31 -2.31
    endloop
  endfacet
  facet normal 0 -1 0
    outer loop
      vertex -2.03014 2.31 -2.31
      vertex -2.31 2.31 2.10468
      vertex -2.31 2.31 -2.10468
    endloop
  endfacet
  facet normal 0 -1 0
    outer loop
      vertex 2.1057 2.31 2.24077
      vertex 2.1057 2.31 -2.24077
      vertex 2.31 2.31 2.04327
    endloop
  endfacet
  facet normal 0 -1 -0
    outer loop
      vertex 2.31 2.31 2.04327
      vertex 2.1057 2.31 -2.24077
      vertex 2.31 2.31 -2.04327
    endloop
  endfacet
  facet normal 0 -1 0
    outer loop
      vertex 2.1057 2.31 -2.24077
      vertex -2.03014 2.31 -2.31
      vertex 2.03408 2.31 -2.31
    endloop
  endfacet
endsolid OpenSCAD_Model
